PathFileType	4	(X/Y/Z)	C:\Users\Basilio\Documents\Thesis Gigler\squatting_fais\c3dfiles\076\SJ_pre3\markers_experimental.trc
DataRate	CameraRate	NumFrames	NumMarkers	Units	OrigDataRate	OrigDataStartFrame	OrigNumFrames
200.000000	200.000000	4	61	mm	200.000000	511	1365
Frame#	Time	FHD			RBHD			C7			T10			CLAV			LSHO			LUUPA			LMUPA			LDUPA			LLEP			LMEP			LRAD			LUL			LRFIN			RSHO			RUPA1			RMUPA			RDUPA			RLEP			RMEP			RRAD			RUL			RUFIN			LASI			RASI			USACR			LSACR			RSACR			LTHI1			LTHI2			LTHI3			LTHI4			LLFC			LMFC			LTIB1			LTIB2			LTIB3			LTIB4			LLMAL			LMMAL			LHEE			LMT1			LMT2			LMT5			RTHI			RTHI2			RTHI3			RTHI4			RLFC			RMFC			RTIB1			RTIB2			RTIB3			RTIB4			RLMAL			RMMAL			RHEE			RMT1			RMT2			RMT5			LBHD			
		X1	Y1	Z1	X2	Y2	Z2	X3	Y3	Z3	X4	Y4	Z4	X5	Y5	Z5	X6	Y6	Z6	X7	Y7	Z7	X8	Y8	Z8	X9	Y9	Z9	X10	Y10	Z10	X11	Y11	Z11	X12	Y12	Z12	X13	Y13	Z13	X14	Y14	Z14	X15	Y15	Z15	X16	Y16	Z16	X17	Y17	Z17	X18	Y18	Z18	X19	Y19	Z19	X20	Y20	Z20	X21	Y21	Z21	X22	Y22	Z22	X23	Y23	Z23	X24	Y24	Z24	X25	Y25	Z25	X26	Y26	Z26	X27	Y27	Z27	X28	Y28	Z28	X29	Y29	Z29	X30	Y30	Z30	X31	Y31	Z31	X32	Y32	Z32	X33	Y33	Z33	X34	Y34	Z34	X35	Y35	Z35	X36	Y36	Z36	X37	Y37	Z37	X38	Y38	Z38	X39	Y39	Z39	X40	Y40	Z40	X41	Y41	Z41	X42	Y42	Z42	X43	Y43	Z43	X44	Y44	Z44	X45	Y45	Z45	X46	Y46	Z46	X47	Y47	Z47	X48	Y48	Z48	X49	Y49	Z49	X50	Y50	Z50	X51	Y51	Z51	X52	Y52	Z52	X53	Y53	Z53	X54	Y54	Z54	X55	Y55	Z55	X56	Y56	Z56	X57	Y57	Z57	X58	Y58	Z58	X59	Y59	Z59	X60	Y60	Z60	X61	Y61	Z61	

512	2.555	53.94043350219728	1153.919311523438	-892.3657226562502	-82.67785644531251	1111.111206054688	-840.600280761719	-161.541244506836	1050.607788085938	-921.7341308593752	-404.1345214843751	857.5207519531252	-941.0823974609377	-105.747673034668	907.038513183594	-916.335632324219	-113.1754150390625	959.9187011718752	-1083.942138671875	-196.333236694336	858.584655761719	-1230.962646484375	-223.6087951660157	819.5769653320315	-1218.965698242188	-235.5139160156251	822.2517089843752	-1278.04931640625	-276.8181152343751	799.8856201171877	-1312.586303710938	-339.8377990722657	861.3335571289065	-1303.56689453125	-449.0787048339845	734.9323730468751	-1152.457641601563	-410.5531311035157	725.3689575195314	-1108.079956054688	-433.0039672851564	674.1503295898439	-1171.079345703125	-145.8780059814453	962.7339477539065	-758.6963500976564	-266.0056762695313	903.208435058594	-617.2326660156251	-274.7611083984376	853.4099121093752	-618.5385131835939	-313.8851013183594	871.082214355469	-574.9703369140626	-363.7028503417969	820.8476562500002	-554.1327514648439	-427.0471191406251	867.7979125976565	-598.5994262695314	-467.412322998047	713.6487426757814	-745.2962646484376	-415.3439331054689	704.6187744140626	-767.6852416992189	-445.9937744140626	657.3449707031251	-712.0698242187501	-393.4419860839845	633.0742187500001	-1044.28955078125	nan	nan	nan	-487.659881591797	785.7359008789065	-943.571716308594	-513.1864624023439	771.9224853515627	-973.8111572265627	-516.8629150390626	768.6879882812502	-916.539489746094	-437.4893798828126	606.8364868164064	-1150.700561523438	-357.3280944824219	582.7342529296876	-1147.30029296875	-329.6009521484376	611.8398437500001	-1118.134521484375	-335.1214294433594	526.2380371093751	-1155.351806640625	-220.792709350586	419.7467651367189	-1141.174560546875	-212.1471252441407	416.1837768554689	-1032.919921875	-226.2031402587891	281.4494934082032	-1064.742797851563	-259.4629516601563	233.5460205078126	-1131.562255859375	-237.5112915039063	229.8073272705079	-1090.2080078125	-289.3028869628907	171.7712097167969	-1058.99560546875	-381.0370788574219	77.58055877685548	-1120.785888671875	-363.8762817382813	87.90981292724611	-1034.814086914063	-445.7293090820314	43.66851043701173	-1077.376831054688	-235.9620971679688	53.7547950744629	-1051.015991210938	-229.3946075439454	54.08385848999025	-1089.560302734375	-245.8085174560547	42.77653884887696	-1140.94921875	-384.7755432128907	541.7814941406251	-728.7330322265626	-316.3768615722657	539.6909790039064	-720.1763916015626	-296.4468383789063	564.8119506835939	-734.8205566406251	-273.2371826171876	465.8590698242189	-721.3173828125001	-232.2140197753907	429.7586975097657	-721.6567382812501	-211.1998596191407	426.2733154296876	-825.2305297851565	-207.1341094970704	294.1380615234376	-739.3476562500001	-302.7328186035157	244.1896057128907	-714.8776855468751	-261.0632324218751	226.393051147461	-730.1902465820314	-267.7966003417969	182.4010162353516	-767.7920532226564	-374.8865051269532	77.53256988525392	-737.6910400390626	-354.7196350097657	89.10108947753908	-821.4849853515627	-435.9989624023439	50.75164031982423	-784.6337890625002	-228.0076599121094	53.03919601440431	-800.3393554687502	-225.193588256836	56.23865127563478	-754.9196777343751	-251.7604217529297	34.67871093750001	-701.5130004882814	-92.17248535156251	1107.438110351563	-993.0369873046877	
513	2.56	54.05004119873048	1153.804931640625	-892.3565063476565	-82.61940765380861	1111.052856445313	-840.6187133789065	-161.4748840332032	1050.582641601563	-921.6712646484377	-404.3972167968751	857.7589111328127	-940.9989013671877	-105.6568450927735	906.969421386719	-916.2600097656252	-113.1563720703125	959.8773193359377	-1083.897583007813	-196.2552947998047	858.6079101562502	-1230.91845703125	-223.6674346923829	819.6273193359377	-1218.950805664063	-235.4315032958985	822.304138183594	-1278.091430664063	-276.5164489746094	799.9005126953127	-1312.504150390625	-339.6926574707032	861.5330200195315	-1303.540893554688	-448.8850097656251	734.9032592773439	-1152.533325195313	-410.2908020019532	725.3171997070314	-1108.120727539063	-432.7910156250001	674.1308593750001	-1171.074584960938	-145.8462066650391	962.663269042969	-758.5941772460939	-266.0080871582032	903.1490478515627	-617.2059936523439	-274.7872314453126	853.3189697265627	-618.5885620117189	-313.9150695800782	871.0017089843752	-574.9941406250001	-363.7580566406251	820.7708129882815	-554.1676635742189	-427.0591735839845	867.6447753906252	-598.7216186523439	-467.5105895996095	713.6126708984376	-745.3613281250001	-415.3735656738282	704.6004638671876	-767.7331542968751	-445.9879455566407	657.4722290039064	-712.1550903320314	-393.4717407226564	632.9287109375001	-1044.244750976563	nan	nan	nan	-487.665740966797	785.6704101562502	-943.6333007812502	-513.1190795898439	771.898132324219	-973.876892089844	-516.7849121093751	768.7128906250002	-916.6651000976565	-437.3237609863282	606.7949829101564	-1150.738403320313	-357.1761779785157	582.6944580078126	-1147.311279296875	-329.5801391601563	611.7102661132814	-1118.149047851563	-334.9529418945313	526.2115478515626	-1155.359252929688	-220.7389526367188	419.6827392578126	-1141.147705078125	-212.0615692138672	416.1694335937501	-1032.848388671875	-226.1867065429688	281.3834533691407	-1064.671875	-259.3840637207032	233.5722198486329	-1131.422241210938	-237.4768524169922	229.7459411621094	-1090.131958007813	-289.2946166992188	171.7735748291016	-1058.92724609375	-381.0674438476563	77.61392974853517	-1120.806274414063	-363.8833312988282	87.88005828857423	-1034.81982421875	-445.6695556640626	43.68095016479493	-1077.377319335938	-236.0155487060547	53.73782348632814	-1051.045654296875	-229.3545227050782	54.04617309570314	-1089.556762695313	-246.4313354492188	42.99499511718751	-1141.158569335938	-384.7901611328126	541.7597045898439	-728.7353515625001	-316.4026184082032	539.6620483398439	-720.2271728515626	-296.4661560058594	564.8074951171876	-734.8522949218751	-273.2230224609376	465.8465270996095	-721.3938598632814	-232.2154846191407	429.7496643066407	-721.6968383789064	-210.3959503173829	426.0901184082032	-825.289001464844	-207.1018371582032	294.1811218261719	-739.3151855468751	-302.7559509277344	244.1866912841797	-714.8665771484376	-261.0690612792969	226.4184112548829	-730.1826171875001	-267.8155822753907	182.3851470947266	-767.7891235351564	-374.8733215332032	77.55200195312501	-737.7014160156251	-354.8690490722657	89.07874298095705	-821.5009765625002	-435.9419860839845	50.7799530029297	-784.7000732421877	-228.0010833740235	53.01818466186525	-800.3713378906252	-225.1712646484376	56.19950103759767	-754.8887939453126	-251.7919311523438	34.72176361083985	-701.4686279296876	-93.66175079345705	1106.688110351563	-992.3428955078127	
514	2.565	54.32371520996095	1153.5234375	-892.3931884765627	-82.48272705078126	1110.969970703125	-840.542175292969	-161.3940734863282	1050.550415039063	-921.5784301757815	-404.0638122558595	857.481140136719	-941.0737304687502	-105.6134109497071	906.942565917969	-916.2606201171877	-113.0843048095703	959.8514404296877	-1083.778442382813	-196.2409057617188	858.628601074219	-1230.922729492188	-223.2003021240235	819.7588500976565	-1218.952392578125	-235.2900085449219	822.3719482421877	-1278.040771484375	-276.5233154296876	799.9910888671877	-1312.575805664063	-339.6279296875001	861.5825195312502	-1303.489013671875	-448.6750488281251	734.8696899414064	-1152.540405273438	-410.313690185547	725.3681640625001	-1108.12060546875	-432.6167297363282	674.0774536132814	-1171.052490234375	-145.8300476074219	962.5757446289065	-758.5236816406251	-266.0332946777344	903.033630371094	-617.1807250976564	-274.8419799804688	853.205505371094	-618.6120605468751	-313.9654235839844	870.9528808593752	-574.9830322265626	-363.7770690917969	820.7080688476565	-554.1191406250001	-427.0708923339845	867.5261840820315	-598.7189941406251	-467.5400695800782	713.6215820312501	-745.3864135742189	-415.3794250488282	704.5571289062501	-767.7337646484376	-446.0754699707032	657.3453369140626	-712.2117919921876	-393.2371520996095	633.0707397460939	-1044.237670898438	nan	nan	nan	-487.5763244628907	785.7340087890627	-943.721130371094	-513.0571289062501	771.8970947265627	-973.9133300781252	-516.7714843750001	768.687927246094	-916.6868896484377	-437.1142883300782	606.7290649414064	-1150.763305664063	-357.0505981445313	582.6307373046876	-1147.311401367188	-329.3991699218751	611.7299804687501	-1118.125244140625	-334.8197631835938	526.1160278320314	-1155.38232421875	-220.6170654296876	419.673309326172	-1141.126220703125	-211.9536590576172	416.1307067871095	-1032.7724609375	-226.0973052978516	281.3862304687501	-1064.637329101563	-259.3811645507813	233.4535827636719	-1131.323486328125	-237.4786071777344	229.7494812011719	-1090.09326171875	-289.2803955078126	171.7244873046875	-1058.880493164063	-381.0327453613282	77.59767913818361	-1120.767944335938	-363.8304138183594	87.91183471679689	-1034.806396484375	-445.6992187500001	43.72187423706055	-1077.399291992188	-235.9906311035157	53.756404876709	-1050.989501953125	-229.4402160644532	54.04589843750001	-1089.58544921875	-245.7346496582032	42.75292968750001	-1140.921997070313	-384.8029174804689	541.8197631835939	-728.7939453125001	-316.4551086425782	539.6974487304689	-720.2207641601564	-296.5054016113282	564.7638549804689	-734.9051513671876	-273.2469177246094	465.8511657714845	-721.3734741210939	-232.2791137695313	429.7463684082032	-721.7145996093751	-210.3878173828126	426.0835571289064	-825.348327636719	-207.1145172119141	294.1753845214844	-739.3532104492189	-302.7620849609376	244.2151489257813	-714.9283447265626	-261.1664428710938	226.3778991699219	-730.1801147460939	-267.8140563964844	182.3848571777344	-767.7910766601564	-374.8994140625001	77.53006744384767	-737.7300415039064	-354.8463745117188	89.14554595947267	-821.5311279296877	-435.9472961425782	50.72108459472658	-784.6611328125002	-228.0023040771485	53.01147460937501	-800.3432617187502	-225.1946411132813	56.20835113525392	-754.8927001953126	-251.7501678466797	34.71134948730469	-701.5071411132814	-93.2753372192383	1106.905639648438	-992.3711547851565	
515	2.57	54.32095336914064	1153.6865234375	-892.2645263671877	-82.3505096435547	1110.956665039063	-840.2816162109377	-161.2734985351563	1050.480102539063	-921.4986572265627	-404.2348632812501	857.7136840820315	-941.0288085937502	-105.5288162231446	906.8559570312502	-916.1721191406252	-113.0091781616211	959.8069458007815	-1083.713745117188	-196.0610809326172	858.6685791015627	-1230.833374023438	-223.0520782470704	819.8707275390627	-1218.9375	-235.1596984863282	822.3753662109377	-1278.147827148438	-276.2982177734376	800.0484619140627	-1312.505737304688	-339.5309448242188	861.7046508789065	-1303.481689453125	-448.7590637207032	734.8233642578126	-1152.554321289063	-410.2579040527345	725.3678588867189	-1108.169067382813	-432.531951904297	674.1192016601564	-1171.131103515625	-145.7932586669922	962.5318603515627	-758.4949340820314	-266.0347900390626	902.9412231445315	-617.1732177734376	-274.8877868652344	853.184997558594	-618.6320800781251	-313.9862670898438	870.8660278320315	-574.9941406250001	-363.8360595703126	820.769714355469	-554.1605224609376	-426.9766235351564	867.467956542969	-598.8169555664064	-467.5664672851564	713.5640258789064	-745.3883666992189	-415.3784484863282	704.5570068359376	-767.7323608398439	-446.1225585937501	657.2056274414064	-712.2144165039064	-393.4658508300782	632.7420654296876	-1044.12451171875	nan	nan	nan	-487.559783935547	785.6360473632815	-943.7346191406252	-512.9826660156251	771.8975219726565	-973.9797363281252	-516.7527465820314	768.7165527343752	-916.797058105469	-436.9621582031251	606.7877197265626	-1150.810791015625	-356.8698120117188	582.5722045898439	-1147.306518554688	-329.2991943359376	611.6542358398439	-1118.080322265625	-334.6692504882813	526.1646728515626	-1155.3720703125	-220.4645233154297	419.594696044922	-1141.023681640625	-211.9010620117188	416.0445861816407	-1032.704345703125	-226.0389251708985	281.3608398437501	-1064.523071289063	-259.3771057128907	233.3862915039063	-1131.316162109375	-237.4385223388672	229.7098999023438	-1090.027221679688	-289.2104797363282	171.693603515625	-1058.82666015625	-380.9682312011719	77.6084442138672	-1120.793334960938	-363.8620605468751	87.89521789550783	-1034.78955078125	-445.6743164062501	43.70234680175782	-1077.382568359375	-235.9617614746094	53.73435211181642	-1051.014892578125	-229.4722442626954	54.04733276367189	-1089.6123046875	-246.4258575439454	42.98194122314454	-1141.147338867188	-384.8410949707032	541.7971801757814	-728.8639526367189	-316.4736633300782	539.6422119140626	-720.2521362304689	-296.5540466308594	564.7474365234376	-734.9099731445314	-273.2977905273438	465.791717529297	-721.4265747070314	-232.3019104003907	429.7431030273439	-721.7424316406251	-210.3764343261719	426.0864562988282	-825.3802490234377	-207.1511230468751	294.1917114257813	-739.3164062500001	-302.7910461425782	244.1787719726563	-714.9771118164064	-261.1356811523438	226.4086914062501	-730.1897583007814	-267.8227233886719	182.3815155029297	-767.8088378906251	-374.8722839355469	77.51904296875001	-737.7144775390626	-354.7208557128907	89.10958862304689	-821.4871826171877	-435.9515991210939	50.68600082397462	-784.6934814453127	-227.9854583740235	53.01503753662111	-800.3602294921877	-225.2250061035157	56.18722152709962	-754.9011230468751	-251.7711486816407	34.72108840942384	-701.4846191406251	-93.21364593505861	1106.83984375	-992.324645996094	
